<svg xmlns="http://www.w3.org/2000/svg" width="1070" height="564" viewBox="0 0 1070 564"><rect width="1070" height="564" fill="#dfe1e5"/><rect x="0.0" y="0.0" width="1070.0" height="564.0" fill="#ffffff" rx="8" stroke="#c6c6c6" stroke-width="1"/><rect x="0.0" y="0.0" width="1070.0" height="34.0" fill="#e7e7e7" rx="8"/><rect x="0.0" y="18.0" width="1070.0" height="16.0" fill="#e7e7e7"/><text x="14" y="22" font-family="Arial, 'Liberation Sans', sans-serif" font-size="13" fill="#3a3a3a" font-weight="bold" text-anchor="start">Sales.ods  —  LibreOffice Calc</text><circle cx="1048" cy="17" r="7" fill="#7fc97f"/><circle cx="1022" cy="17" r="7" fill="#e0c86c"/><circle cx="996" cy="17" r="7" fill="#e06c6c"/><rect x="0.0" y="34.0" width="1070.0" height="32.0" fill="#f4f4f4"/><text x="14" y="55" font-family="Arial, 'Liberation Sans', sans-serif" font-size="13" fill="#2a2a2a" font-weight="normal" text-anchor="start">File</text><text x="62" y="55" font-family="Arial, 'Liberation Sans', sans-serif" font-size="13" fill="#2a2a2a" font-weight="normal" text-anchor="start">Edit</text><text x="110" y="55" font-family="Arial, 'Liberation Sans', sans-serif" font-size="13" fill="#2a2a2a" font-weight="normal" text-anchor="start">View</text><text x="158" y="55" font-family="Arial, 'Liberation Sans', sans-serif" font-size="13" fill="#2a2a2a" font-weight="normal" text-anchor="start">Insert</text><text x="224" y="55" font-family="Arial, 'Liberation Sans', sans-serif" font-size="13" fill="#2a2a2a" font-weight="normal" text-anchor="start">Format</text><text x="290" y="55" font-family="Arial, 'Liberation Sans', sans-serif" font-size="13" fill="#2a2a2a" font-weight="normal" text-anchor="start">Styles</text><text x="356" y="55" font-family="Arial, 'Liberation Sans', sans-serif" font-size="13" fill="#2a2a2a" font-weight="normal" text-anchor="start">Sheet</text><text x="413" y="55" font-family="Arial, 'Liberation Sans', sans-serif" font-size="13" fill="#2a2a2a" font-weight="normal" text-anchor="start">Data</text><text x="461" y="55" font-family="Arial, 'Liberation Sans', sans-serif" font-size="13" fill="#2a2a2a" font-weight="normal" text-anchor="start">Tools</text><rect x="512.0" y="39.0" width="48.0" height="24.0" fill="#1a73e8" rx="4"/><text x="518" y="55" font-family="Arial, 'Liberation Sans', sans-serif" font-size="13" fill="#ffffff" font-weight="bold" text-anchor="start">LIST</text><text x="566" y="55" font-family="Arial, 'Liberation Sans', sans-serif" font-size="13" fill="#2a2a2a" font-weight="normal" text-anchor="start">Window</text><text x="632" y="55" font-family="Arial, 'Liberation Sans', sans-serif" font-size="13" fill="#2a2a2a" font-weight="normal" text-anchor="start">Help</text><rect x="0.0" y="66.0" width="1070.0" height="42.0" fill="#f4f4f4"/><rect x="0.0" y="107.0" width="1070.0" height="1.0" fill="#c6c6c6"/><rect x="14.0" y="74.0" width="24.0" height="24.0" fill="#ffffff" rx="4" stroke="#c6c6c6" stroke-width="1"/><rect x="20.0" y="80.0" width="12.0" height="3.0" fill="#9aa0a6"/><rect x="20.0" y="85.0" width="12.0" height="3.0" fill="#c3c7cc"/><rect x="44.0" y="74.0" width="24.0" height="24.0" fill="#ffffff" rx="4" stroke="#c6c6c6" stroke-width="1"/><rect x="50.0" y="80.0" width="12.0" height="3.0" fill="#9aa0a6"/><rect x="50.0" y="85.0" width="12.0" height="3.0" fill="#c3c7cc"/><rect x="74.0" y="74.0" width="24.0" height="24.0" fill="#ffffff" rx="4" stroke="#c6c6c6" stroke-width="1"/><rect x="80.0" y="80.0" width="12.0" height="3.0" fill="#9aa0a6"/><rect x="80.0" y="85.0" width="12.0" height="3.0" fill="#c3c7cc"/><rect x="104.0" y="74.0" width="24.0" height="24.0" fill="#ffffff" rx="4" stroke="#c6c6c6" stroke-width="1"/><rect x="110.0" y="80.0" width="12.0" height="3.0" fill="#9aa0a6"/><rect x="110.0" y="85.0" width="12.0" height="3.0" fill="#c3c7cc"/><rect x="134.0" y="74.0" width="24.0" height="24.0" fill="#ffffff" rx="4" stroke="#c6c6c6" stroke-width="1"/><rect x="140.0" y="80.0" width="12.0" height="3.0" fill="#9aa0a6"/><rect x="140.0" y="85.0" width="12.0" height="3.0" fill="#c3c7cc"/><rect x="164.0" y="74.0" width="24.0" height="24.0" fill="#ffffff" rx="4" stroke="#c6c6c6" stroke-width="1"/><rect x="170.0" y="80.0" width="12.0" height="3.0" fill="#9aa0a6"/><rect x="170.0" y="85.0" width="12.0" height="3.0" fill="#c3c7cc"/><rect x="194.0" y="74.0" width="24.0" height="24.0" fill="#ffffff" rx="4" stroke="#c6c6c6" stroke-width="1"/><rect x="200.0" y="80.0" width="12.0" height="3.0" fill="#9aa0a6"/><rect x="200.0" y="85.0" width="12.0" height="3.0" fill="#c3c7cc"/><rect x="224.0" y="74.0" width="24.0" height="24.0" fill="#ffffff" rx="4" stroke="#c6c6c6" stroke-width="1"/><rect x="230.0" y="80.0" width="12.0" height="3.0" fill="#9aa0a6"/><rect x="230.0" y="85.0" width="12.0" height="3.0" fill="#c3c7cc"/><rect x="254.0" y="74.0" width="24.0" height="24.0" fill="#ffffff" rx="4" stroke="#c6c6c6" stroke-width="1"/><rect x="260.0" y="80.0" width="12.0" height="3.0" fill="#9aa0a6"/><rect x="260.0" y="85.0" width="12.0" height="3.0" fill="#c3c7cc"/><rect x="290.0" y="72.0" width="118.0" height="28.0" fill="#e8eefc" rx="5" stroke="#1a73e8" stroke-width="1"/><rect x="298.0" y="77.0" width="18.0" height="18.0" fill="#4F46E5" rx="4"/><rect x="301.0" y="80.0" width="12.0" height="3.0" fill="#F59E0B"/><rect x="301.0" y="85.0" width="12.0" height="3.0" fill="#ffffff"/><rect x="301.0" y="90.0" width="12.0" height="3.0" fill="#F59E0B"/><text x="324" y="91" font-family="Arial, 'Liberation Sans', sans-serif" font-size="13" fill="#1a3a8a" font-weight="bold" text-anchor="start">List rows</text><rect x="0.0" y="108.0" width="1070.0" height="34.0" fill="#f4f4f4"/><rect x="10.0" y="113.0" width="74.0" height="24.0" fill="#ffffff" rx="3" stroke="#c6c6c6" stroke-width="1"/><text x="18" y="130" font-family="Arial, 'Liberation Sans', sans-serif" font-size="13" fill="#1e1e1e" font-weight="bold" text-anchor="start">A1</text><text x="96" y="130" font-family="Georgia, serif" font-size="13" fill="#8a8a8a" font-weight="bold" text-anchor="start">fx</text><text x="120" y="130" font-family="Arial, 'Liberation Sans', sans-serif" font-size="14" fill="#8a8a8a" font-weight="normal" text-anchor="start">Σ</text><text x="140" y="130" font-family="Arial, 'Liberation Sans', sans-serif" font-size="14" fill="#8a8a8a" font-weight="normal" text-anchor="start">=</text><rect x="158.0" y="113.0" width="902.0" height="24.0" fill="#ffffff" rx="3" stroke="#c6c6c6" stroke-width="1"/><text x="166" y="130" font-family="Arial, 'Liberation Sans', sans-serif" font-size="13" fill="#1e1e1e" font-weight="normal" text-anchor="start">Month</text><rect x="8.0" y="142.0" width="1054.0" height="24.0" fill="#ededed"/><rect x="8.0" y="142.0" width="44.0" height="24.0" fill="#ededed"/><text x="127" y="159" font-family="Arial, 'Liberation Sans', sans-serif" font-size="12" fill="#5a5a5a" font-weight="normal" text-anchor="middle">A</text><rect x="52.0" y="142.0" width="1.0" height="388.0" fill="#dcdcdc"/><text x="262" y="159" font-family="Arial, 'Liberation Sans', sans-serif" font-size="12" fill="#5a5a5a" font-weight="normal" text-anchor="middle">B</text><rect x="202.0" y="142.0" width="1.0" height="388.0" fill="#dcdcdc"/><text x="397" y="159" font-family="Arial, 'Liberation Sans', sans-serif" font-size="12" fill="#5a5a5a" font-weight="normal" text-anchor="middle">C</text><rect x="322.0" y="142.0" width="1.0" height="388.0" fill="#dcdcdc"/><text x="492" y="159" font-family="Arial, 'Liberation Sans', sans-serif" font-size="12" fill="#5a5a5a" font-weight="normal" text-anchor="middle">D</text><rect x="472.0" y="142.0" width="1.0" height="388.0" fill="#dcdcdc"/><text x="587" y="159" font-family="Arial, 'Liberation Sans', sans-serif" font-size="12" fill="#5a5a5a" font-weight="normal" text-anchor="middle">E</text><rect x="512.0" y="142.0" width="1.0" height="388.0" fill="#dcdcdc"/><text x="722" y="159" font-family="Arial, 'Liberation Sans', sans-serif" font-size="12" fill="#5a5a5a" font-weight="normal" text-anchor="middle">F</text><rect x="662.0" y="142.0" width="1.0" height="388.0" fill="#dcdcdc"/><text x="857" y="159" font-family="Arial, 'Liberation Sans', sans-serif" font-size="12" fill="#5a5a5a" font-weight="normal" text-anchor="middle">G</text><rect x="782.0" y="142.0" width="1.0" height="388.0" fill="#dcdcdc"/><text x="997" y="159" font-family="Arial, 'Liberation Sans', sans-serif" font-size="12" fill="#5a5a5a" font-weight="normal" text-anchor="middle">H</text><rect x="932.0" y="142.0" width="1.0" height="388.0" fill="#dcdcdc"/><rect x="1062.0" y="142.0" width="1.0" height="388.0" fill="#dcdcdc"/><rect x="8.0" y="166.0" width="44.0" height="26.0" fill="#ededed"/><text x="30" y="184" font-family="Arial, 'Liberation Sans', sans-serif" font-size="12" fill="#5a5a5a" font-weight="normal" text-anchor="middle">1</text><rect x="52.0" y="166.0" width="1010.0" height="1.0" fill="#dcdcdc"/><rect x="8.0" y="192.0" width="44.0" height="26.0" fill="#ededed"/><text x="30" y="210" font-family="Arial, 'Liberation Sans', sans-serif" font-size="12" fill="#5a5a5a" font-weight="normal" text-anchor="middle">2</text><rect x="52.0" y="192.0" width="1010.0" height="1.0" fill="#dcdcdc"/><rect x="8.0" y="218.0" width="44.0" height="26.0" fill="#ededed"/><text x="30" y="236" font-family="Arial, 'Liberation Sans', sans-serif" font-size="12" fill="#5a5a5a" font-weight="normal" text-anchor="middle">3</text><rect x="52.0" y="218.0" width="1010.0" height="1.0" fill="#dcdcdc"/><rect x="8.0" y="244.0" width="44.0" height="26.0" fill="#ededed"/><text x="30" y="262" font-family="Arial, 'Liberation Sans', sans-serif" font-size="12" fill="#5a5a5a" font-weight="normal" text-anchor="middle">4</text><rect x="52.0" y="244.0" width="1010.0" height="1.0" fill="#dcdcdc"/><rect x="8.0" y="270.0" width="44.0" height="26.0" fill="#ededed"/><text x="30" y="288" font-family="Arial, 'Liberation Sans', sans-serif" font-size="12" fill="#5a5a5a" font-weight="normal" text-anchor="middle">5</text><rect x="52.0" y="270.0" width="1010.0" height="1.0" fill="#dcdcdc"/><rect x="8.0" y="296.0" width="44.0" height="26.0" fill="#ededed"/><text x="30" y="314" font-family="Arial, 'Liberation Sans', sans-serif" font-size="12" fill="#5a5a5a" font-weight="normal" text-anchor="middle">6</text><rect x="52.0" y="296.0" width="1010.0" height="1.0" fill="#dcdcdc"/><rect x="8.0" y="322.0" width="44.0" height="26.0" fill="#ededed"/><text x="30" y="340" font-family="Arial, 'Liberation Sans', sans-serif" font-size="12" fill="#5a5a5a" font-weight="normal" text-anchor="middle">7</text><rect x="52.0" y="322.0" width="1010.0" height="1.0" fill="#dcdcdc"/><rect x="8.0" y="348.0" width="44.0" height="26.0" fill="#ededed"/><text x="30" y="366" font-family="Arial, 'Liberation Sans', sans-serif" font-size="12" fill="#5a5a5a" font-weight="normal" text-anchor="middle">8</text><rect x="52.0" y="348.0" width="1010.0" height="1.0" fill="#dcdcdc"/><rect x="8.0" y="374.0" width="44.0" height="26.0" fill="#ededed"/><text x="30" y="392" font-family="Arial, 'Liberation Sans', sans-serif" font-size="12" fill="#5a5a5a" font-weight="normal" text-anchor="middle">9</text><rect x="52.0" y="374.0" width="1010.0" height="1.0" fill="#dcdcdc"/><rect x="8.0" y="400.0" width="44.0" height="26.0" fill="#ededed"/><text x="30" y="418" font-family="Arial, 'Liberation Sans', sans-serif" font-size="12" fill="#5a5a5a" font-weight="normal" text-anchor="middle">10</text><rect x="52.0" y="400.0" width="1010.0" height="1.0" fill="#dcdcdc"/><rect x="8.0" y="426.0" width="44.0" height="26.0" fill="#ededed"/><text x="30" y="444" font-family="Arial, 'Liberation Sans', sans-serif" font-size="12" fill="#5a5a5a" font-weight="normal" text-anchor="middle">11</text><rect x="52.0" y="426.0" width="1010.0" height="1.0" fill="#dcdcdc"/><rect x="8.0" y="452.0" width="44.0" height="26.0" fill="#ededed"/><text x="30" y="470" font-family="Arial, 'Liberation Sans', sans-serif" font-size="12" fill="#5a5a5a" font-weight="normal" text-anchor="middle">12</text><rect x="52.0" y="452.0" width="1010.0" height="1.0" fill="#dcdcdc"/><rect x="8.0" y="478.0" width="44.0" height="26.0" fill="#ededed"/><text x="30" y="496" font-family="Arial, 'Liberation Sans', sans-serif" font-size="12" fill="#5a5a5a" font-weight="normal" text-anchor="middle">13</text><rect x="52.0" y="478.0" width="1010.0" height="1.0" fill="#dcdcdc"/><rect x="8.0" y="504.0" width="44.0" height="26.0" fill="#ededed"/><text x="30" y="522" font-family="Arial, 'Liberation Sans', sans-serif" font-size="12" fill="#5a5a5a" font-weight="normal" text-anchor="middle">14</text><rect x="52.0" y="504.0" width="1010.0" height="1.0" fill="#dcdcdc"/><rect x="52.0" y="530.0" width="1010.0" height="1.0" fill="#dcdcdc"/><rect x="52.0" y="142.0" width="1.0" height="388.0" fill="#cfcfcf"/><rect x="52.0" y="166.0" width="150.0" height="26.0" fill="#4F46E5"/><text x="127" y="184" font-family="Arial, 'Liberation Sans', sans-serif" font-size="13" fill="#ffffff" font-weight="bold" text-anchor="middle">Month</text><rect x="202.0" y="166.0" width="120.0" height="26.0" fill="#4F46E5"/><text x="262" y="184" font-family="Arial, 'Liberation Sans', sans-serif" font-size="13" fill="#ffffff" font-weight="bold" text-anchor="middle">Region</text><rect x="322.0" y="166.0" width="150.0" height="26.0" fill="#4F46E5"/><text x="397" y="184" font-family="Arial, 'Liberation Sans', sans-serif" font-size="13" fill="#ffffff" font-weight="bold" text-anchor="middle">Revenue</text><text x="60" y="210" font-family="Arial, 'Liberation Sans', sans-serif" font-size="13" fill="#1e1e1e" font-weight="normal" text-anchor="start">2024-01</text><text x="210" y="210" font-family="Arial, 'Liberation Sans', sans-serif" font-size="13" fill="#1e1e1e" font-weight="normal" text-anchor="start">East</text><text x="464" y="210" font-family="Arial, 'Liberation Sans', sans-serif" font-size="13" fill="#1e1e1e" font-weight="normal" text-anchor="end">41,200</text><text x="60" y="236" font-family="Arial, 'Liberation Sans', sans-serif" font-size="13" fill="#1e1e1e" font-weight="normal" text-anchor="start">2024-02</text><text x="210" y="236" font-family="Arial, 'Liberation Sans', sans-serif" font-size="13" fill="#1e1e1e" font-weight="normal" text-anchor="start">West</text><text x="464" y="236" font-family="Arial, 'Liberation Sans', sans-serif" font-size="13" fill="#1e1e1e" font-weight="normal" text-anchor="end">38,750</text><text x="60" y="262" font-family="Arial, 'Liberation Sans', sans-serif" font-size="13" fill="#1e1e1e" font-weight="normal" text-anchor="start">2024-03</text><text x="210" y="262" font-family="Arial, 'Liberation Sans', sans-serif" font-size="13" fill="#1e1e1e" font-weight="normal" text-anchor="start">North</text><text x="464" y="262" font-family="Arial, 'Liberation Sans', sans-serif" font-size="13" fill="#1e1e1e" font-weight="normal" text-anchor="end">52,100</text><text x="60" y="288" font-family="Arial, 'Liberation Sans', sans-serif" font-size="13" fill="#1e1e1e" font-weight="normal" text-anchor="start">2024-04</text><text x="210" y="288" font-family="Arial, 'Liberation Sans', sans-serif" font-size="13" fill="#1e1e1e" font-weight="normal" text-anchor="start">South</text><text x="464" y="288" font-family="Arial, 'Liberation Sans', sans-serif" font-size="13" fill="#1e1e1e" font-weight="normal" text-anchor="end">47,600</text><text x="60" y="314" font-family="Arial, 'Liberation Sans', sans-serif" font-size="13" fill="#1e1e1e" font-weight="normal" text-anchor="start">2024-05</text><text x="210" y="314" font-family="Arial, 'Liberation Sans', sans-serif" font-size="13" fill="#1e1e1e" font-weight="normal" text-anchor="start">East</text><text x="464" y="314" font-family="Arial, 'Liberation Sans', sans-serif" font-size="13" fill="#1e1e1e" font-weight="normal" text-anchor="end">55,300</text><text x="60" y="340" font-family="Arial, 'Liberation Sans', sans-serif" font-size="13" fill="#1e1e1e" font-weight="normal" text-anchor="start">2024-06</text><text x="210" y="340" font-family="Arial, 'Liberation Sans', sans-serif" font-size="13" fill="#1e1e1e" font-weight="normal" text-anchor="start">West</text><text x="464" y="340" font-family="Arial, 'Liberation Sans', sans-serif" font-size="13" fill="#1e1e1e" font-weight="normal" text-anchor="end">49,900</text><text x="60" y="366" font-family="Arial, 'Liberation Sans', sans-serif" font-size="13" fill="#1e1e1e" font-weight="normal" text-anchor="start">2024-07</text><text x="210" y="366" font-family="Arial, 'Liberation Sans', sans-serif" font-size="13" fill="#1e1e1e" font-weight="normal" text-anchor="start">North</text><text x="464" y="366" font-family="Arial, 'Liberation Sans', sans-serif" font-size="13" fill="#1e1e1e" font-weight="normal" text-anchor="end">61,250</text><text x="60" y="392" font-family="Arial, 'Liberation Sans', sans-serif" font-size="13" fill="#1e1e1e" font-weight="normal" text-anchor="start">2024-08</text><text x="210" y="392" font-family="Arial, 'Liberation Sans', sans-serif" font-size="13" fill="#1e1e1e" font-weight="normal" text-anchor="start">South</text><text x="464" y="392" font-family="Arial, 'Liberation Sans', sans-serif" font-size="13" fill="#1e1e1e" font-weight="normal" text-anchor="end">58,700</text><text x="60" y="418" font-family="Arial, 'Liberation Sans', sans-serif" font-size="13" fill="#1e1e1e" font-weight="normal" text-anchor="start">2024-09</text><text x="210" y="418" font-family="Arial, 'Liberation Sans', sans-serif" font-size="13" fill="#1e1e1e" font-weight="normal" text-anchor="start">East</text><text x="464" y="418" font-family="Arial, 'Liberation Sans', sans-serif" font-size="13" fill="#1e1e1e" font-weight="normal" text-anchor="end">64,100</text><text x="60" y="444" font-family="Arial, 'Liberation Sans', sans-serif" font-size="13" fill="#1e1e1e" font-weight="normal" text-anchor="start">2024-10</text><text x="210" y="444" font-family="Arial, 'Liberation Sans', sans-serif" font-size="13" fill="#1e1e1e" font-weight="normal" text-anchor="start">West</text><text x="464" y="444" font-family="Arial, 'Liberation Sans', sans-serif" font-size="13" fill="#1e1e1e" font-weight="normal" text-anchor="end">60,350</text><text x="60" y="470" font-family="Arial, 'Liberation Sans', sans-serif" font-size="13" fill="#1e1e1e" font-weight="normal" text-anchor="start">2024-11</text><text x="210" y="470" font-family="Arial, 'Liberation Sans', sans-serif" font-size="13" fill="#1e1e1e" font-weight="normal" text-anchor="start">North</text><text x="464" y="470" font-family="Arial, 'Liberation Sans', sans-serif" font-size="13" fill="#1e1e1e" font-weight="normal" text-anchor="end">71,800</text><text x="60" y="496" font-family="Arial, 'Liberation Sans', sans-serif" font-size="13" fill="#1e1e1e" font-weight="normal" text-anchor="start">2024-12</text><text x="210" y="496" font-family="Arial, 'Liberation Sans', sans-serif" font-size="13" fill="#1e1e1e" font-weight="normal" text-anchor="start">South</text><text x="464" y="496" font-family="Arial, 'Liberation Sans', sans-serif" font-size="13" fill="#1e1e1e" font-weight="normal" text-anchor="end">69,400</text><rect x="0.0" y="530.0" width="1070.0" height="34.0" fill="#f4f4f4"/><rect x="0.0" y="530.0" width="1070.0" height="1.0" fill="#c6c6c6"/><rect x="14.0" y="538.0" width="60.0" height="18.0" fill="#ffffff" rx="3" stroke="#c6c6c6" stroke-width="1"/><text x="24" y="551" font-family="Arial, 'Liberation Sans', sans-serif" font-size="12" fill="#5a5a5a" font-weight="normal" text-anchor="start">Sheet 1</text><text x="910" y="551" font-family="Arial, 'Liberation Sans', sans-serif" font-size="12" fill="#5a5a5a" font-weight="normal" text-anchor="start">Average: 55,371   Sum: 276,850</text><rect x="512.0" y="66.0" width="190.0" height="40.0" fill="#ffffff" rx="4" stroke="#c6c6c6" stroke-width="1"/><rect x="516.0" y="72.0" width="182.0" height="28.0" fill="#e8eefc" rx="4"/><text x="526" y="90" font-family="Arial, 'Liberation Sans', sans-serif" font-size="13" fill="#1a3a8a" font-weight="bold" text-anchor="start">List rows…</text><rect x="0.0" y="0.0" width="1070.0" height="564.0" fill="#000000" opacity="0.18"/><rect x="365.0" y="187.0" width="340.0" height="210.0" fill="#f7f7f7" rx="8" stroke="#9a9a9a" stroke-width="1"/><rect x="365.0" y="187.0" width="340.0" height="40.0" fill="#4F46E5" rx="8"/><rect x="365.0" y="207.0" width="340.0" height="20.0" fill="#4F46E5"/><text x="381" y="213" font-family="Arial, 'Liberation Sans', sans-serif" font-size="15" fill="#ffffff" font-weight="bold" text-anchor="start">List rows</text><text x="385" y="261" font-family="Arial, 'Liberation Sans', sans-serif" font-size="13" fill="#1e1e1e" font-weight="normal" text-anchor="start">Number of rows:</text><rect x="535.0" y="247.0" width="150.0" height="24.0" fill="#ffffff" rx="3" stroke="#c6c6c6" stroke-width="1"/><text x="543" y="264" font-family="Arial, 'Liberation Sans', sans-serif" font-size="13" fill="#1e1e1e" font-weight="normal" text-anchor="start">5</text><text x="385" y="301" font-family="Arial, 'Liberation Sans', sans-serif" font-size="13" fill="#1e1e1e" font-weight="normal" text-anchor="start">Output top-left cell:</text><rect x="535.0" y="287.0" width="150.0" height="24.0" fill="#ffffff" rx="3" stroke="#c6c6c6" stroke-width="1"/><text x="543" y="304" font-family="Arial, 'Liberation Sans', sans-serif" font-size="13" fill="#1e1e1e" font-weight="normal" text-anchor="start">E1</text><text x="385" y="337" font-family="Arial, 'Liberation Sans', sans-serif" font-size="11" fill="#6a6a6a" font-weight="normal" text-anchor="start">Positive = first N rows, negative = last N.</text><rect x="515.0" y="353.0" width="84.0" height="30.0" fill="#4F46E5" rx="5"/><text x="557" y="373" font-family="Arial, 'Liberation Sans', sans-serif" font-size="13" fill="#ffffff" font-weight="bold" text-anchor="middle">OK</text><rect x="607.0" y="353.0" width="84.0" height="30.0" fill="#ffffff" rx="5" stroke="#c6c6c6" stroke-width="1"/><text x="649" y="373" font-family="Arial, 'Liberation Sans', sans-serif" font-size="13" fill="#1e1e1e" font-weight="normal" text-anchor="middle">Cancel</text></svg>